# xmcd
#
# Track frame offsets: 
#        150
#        10027
#        20410
#        33270
#        47925
#        62195
#        75060
#        84617
#        100970
#        113117
#        128532
#        140812
#        153747
#        170415
#        182137
#        198162
#        210432
#        222885
#        233587
#        245580
#        258100
#        272127
#
# Disc length: 3843 seconds
#
# Revision: 6
# Processed by: cddbd v1.5.2PL0 Copyright (c) Steve Scherf et al.
# Submitted via: ExactAudioCopy v0.99pb4
#
DISCID=250f0116
DTITLE=Merle Haggard - For The Record (43 Legendary Hits) [CD1]
DYEAR=1999
DGENRE=Country
TTITLE0=Mama Tried
TTITLE1=Sing A Sad Song
TTITLE2=Swinging Doors
TTITLE3=I'm A Lonesome Fugitive
TTITLE4=Branded Man
TTITLE5=Sing Me Back Home
TTITLE6=The Legend Of Bonnie And Clyde
TTITLE7=Hungry Eyes
TTITLE8=Workin' Man Blues
TTITLE9=Silver Wings (Duet With Jewel)
TTITLE10=Okie From Muskogee
TTITLE11=The Fightin' Side Of Me
TTITLE12=Daddy Frank
TTITLE13=Carolyn
TTITLE14=It's Not Love (But It's Not Bad)
TTITLE15=Everybody's Had The Blues
TTITLE16=If We Make It Through December
TTITLE17=Old Man From The Mountain
TTITLE18=Things Aren't Funny Anymore
TTITLE19=Movin' On (Duet With Brooks and Dunn)
TTITLE20=Always Wanting You
TTITLE21=It's All In The Movies
EXTD=\n\n YEAR: 1999 ID3G:   2
EXTT0=
EXTT1=
EXTT2=
EXTT3=
EXTT4=
EXTT5=
EXTT6=
EXTT7=
EXTT8=
EXTT9=
EXTT10=
EXTT11=
EXTT12=
EXTT13=
EXTT14=
EXTT15=
EXTT16=
EXTT17=
EXTT18=
EXTT19=
EXTT20=
EXTT21=
PLAYORDER=
